<?xml version="1.0" encoding="utf-8"?>
<!-- Generator: Adobe Illustrator 16.0.0, SVG Export Plug-In . SVG Version: 6.00 Build 0)  -->
<!DOCTYPE svg PUBLIC "-//W3C//DTD SVG 1.1//EN" "http://www.w3.org/Graphics/SVG/1.1/DTD/svg11.dtd">
<svg version="1.1" id="Layer_1" xmlns="http://www.w3.org/2000/svg" xmlns:xlink="http://www.w3.org/1999/xlink" x="0px" y="0px"
	 width="600.012px" height="210.472px" viewBox="121.404 196.004 600.012 210.472"
	 enable-background="new 121.404 196.004 600.012 210.472" xml:space="preserve">
<title>logoBLESS</title>
<rect x="121.404" y="196.01" fill="#3E441D" width="19.748" height="58.137"/>
<rect x="121.404" y="289.269" fill="#3E441D" width="19.748" height="39.934"/>
<path fill="#3E441D" d="M199.272,262.616c14.6-4.164,26.565-12.984,26.565-28.48c0-32.345-44.345-37.265-59.736-37.985v132.964
	c18.342-0.613,62.336-5.375,62.336-38.652C228.402,290.41,229.667,269.766,199.272,262.616z"/>
<path fill="#3E441D" d="M342.603,304.326h-54.571V197.521c-0.168-0.936-1.021-1.589-1.968-1.511h-25.809
	c-1.177,0-2.144,0.843-2.144,1.511v130.102c0,0.668,0.966,1.492,2.144,1.492h82.348c1.37,0,2.161-0.824,2.161-1.492v-21.629
	C344.747,305.152,343.956,304.326,342.603,304.326z"/>
<path fill="#3E441D" d="M374.368,197.521v130.102c0,0.668,0.984,1.492,2.144,1.492h91.361v-24.789h-63.583v-29.868h61.406
	c1.176,0,2.16-0.843,2.16-1.511v-21.083c0-0.844-0.984-1.511-2.16-1.511h-61.406v-30.219h63.566V196.08h-91.361
	C375.353,196.08,374.368,196.854,374.368,197.521z"/>
<path fill="#3E441D" d="M578.912,260.49c-2.842-1.988-5.879-3.678-9.066-5.042c-6.582-2.67-13.58-4.175-20.68-4.445
	c-1.176,0-6.307-0.457-7.449-0.632c-7.203-1.107-13.896-5.763-14.934-13.001c-0.025-0.403-0.025-0.809,0-1.212
	c0-10.647,8.785-16.146,19.555-16.146c10.172,0,18.781,4.498,19.168,14.056c0,0.492,0.984,1.317,2.145,1.317h24.438
	c1.371,0,2.338-0.826,2.145-1.317c-0.387-22.7-21.154-37.985-47.947-37.985h-0.193c-25.037,0-48.51,13.81-48.51,38.758
	c0,0.281,0,0.544,0,0.826s0,0.334,0,0.51c0,12.298,5.764,22.172,16.182,28.919c2.896,1.927,5.996,3.53,9.242,4.779
	c7.361,2.88,15.182,4.404,23.086,4.498c1.178,0.105,3.514,0.333,4.691,0.527c7.186,1.3,13.773,5.657,14.811,12.896
	c0.027,0.404,0.027,0.809,0,1.212c0,10.647-8.785,16.147-19.555,16.147c-10.172,0-18.781-4.498-19.168-14.056
	c0-0.492-0.984-1.335-2.143-1.335h-24.404c-1.371,0-2.338,0.843-2.145,1.335c0.387,22.628,21.084,37.931,47.912,37.931h0.193
	c25.037,0,48.51-13.809,48.51-38.757c0-0.281,0-0.562,0-0.826c0-0.263,0-0.333,0-0.509
	C594.794,276.899,589.33,267.236,578.912,260.49z"/>
<path fill="#3E441D" d="M705.603,260.49c-2.84-1.988-5.877-3.678-9.064-5.042c-6.584-2.67-13.58-4.175-20.68-4.445
	c-1.178,0-6.307-0.457-7.449-0.632c-7.203-1.107-13.898-5.763-14.934-13.001c-0.027-0.403-0.027-0.809,0-1.212
	c0-10.647,8.785-16.146,19.555-16.146c10.172,0,18.781,4.498,19.168,14.056c0,0.492,0.967,1.317,2.143,1.317h24.457
	c1.371,0,2.338-0.826,2.145-1.317c-0.439-22.7-21.172-37.985-48.035-37.985h-0.193c-25.037,0-48.51,13.81-48.51,38.758
	c0,0.281,0,0.544,0,0.826s0,0.334,0,0.51c0,12.298,5.764,22.172,16.182,28.919c2.918,1.932,6.041,3.534,9.313,4.779
	c7.359,2.881,15.182,4.405,23.086,4.498c1.178,0.105,3.514,0.333,4.691,0.527c7.168,1.3,13.773,5.657,14.811,12.896
	c0.025,0.404,0.025,0.809,0,1.212c0,10.647-8.785,16.147-19.555,16.147c-10.174,0-18.781-4.498-19.168-14.056
	c0-0.492-0.984-1.335-2.162-1.335h-24.387c-1.369,0-2.354,0.843-2.143,1.335c0.387,22.628,21.084,37.931,47.912,37.931h0.123
	c25.035,0,48.508-13.809,48.508-38.757c0-0.281,0-0.562,0-0.826c0-0.263,0-0.333,0-0.509
	C721.486,276.899,716.023,267.236,705.603,260.49z"/>
<path fill="#3E441D" d="M138.956,389.343c0,0.527,0,1.037,0,1.477s0,0.633-0.281,0.633c-0.281,0-0.369-0.51-0.404-0.703
	s-0.123-0.686-0.193-1.037c-0.228-1.295-0.791-2.506-1.634-3.514c-1.468-1.846-4.126-2.217-6.044-0.844
	c-0.38,0.293-0.712,0.643-0.984,1.037c-1.03,1.617-1.667,3.451-1.862,5.359c-0.183,1.238-0.276,2.488-0.281,3.742
	c0,3.373,0.755,6.834,2.39,8.625c0.523,0.607,1.214,1.047,1.985,1.266c0.446,0.125,0.907,0.191,1.37,0.193
	c1.222,0.014,2.403-0.439,3.303-1.266c1.059-0.932,1.822-2.152,2.196-3.514c0.167-0.492,0.296-0.998,0.386-1.51
	c0.022-0.172,0.096-0.33,0.211-0.457c0.06-0.064,0.142-0.102,0.229-0.105c0,0,0.246,0,0.246,0.439
	c-0.021,0.547-0.074,1.092-0.158,1.633c-0.158,1.529-0.158,2.777-0.158,3.004v0.721c0,0.439,0,0.914,0,1.354
	c0,0.105,0,0.387-0.193,0.387s-0.211-0.193-0.316-0.316c-0.294-0.66-0.819-1.191-1.476-1.494c-1.32,1.334-3.131,2.066-5.007,2.021
	c-2.717-0.086-5.305-1.182-7.256-3.074c-2.173-2.188-3.376-5.158-3.338-8.24c-0.009-2.754,0.927-5.428,2.653-7.572
	c1.957-2.416,4.923-3.785,8.029-3.707c1.238-0.025,2.457,0.303,3.514,0.947c0.42,0.297,0.911,0.479,1.423,0.527
	c0.461-0.033,0.891-0.248,1.195-0.598c0.281-0.352,0.386-0.439,0.474-0.439s0.158,0,0.158,0.193s0,0.281-0.123,1.072s0,1.6,0,2.32
	L138.956,389.343z"/>
<path fill="#3E441D" d="M176.15,386.568c1.078,1.029,1.928,2.275,2.495,3.654c0.649,1.57,0.972,3.256,0.949,4.955
	c0.035,2.924-1.01,5.758-2.934,7.959c-0.724,0.803-1.572,1.486-2.512,2.02c-3.939,2.221-8.895,1.377-11.877-2.02
	c-1.967-2.211-3.043-5.072-3.022-8.029c-0.012-1.91,0.415-3.799,1.247-5.518c0.47-0.912,1.061-1.758,1.757-2.512
	c1.885-2.045,4.545-3.199,7.326-3.18C172.034,383.898,174.391,384.857,176.15,386.568z M166.259,386.691
	c-1.111,2.438-1.617,5.107-1.476,7.783c0,1.984,0.158,7.027,2.267,9.979c0.221,0.324,0.487,0.613,0.791,0.861
	c0.568,0.434,1.273,0.645,1.985,0.598c1.316,0.074,2.513-0.76,2.899-2.021c0.285-0.65,0.509-1.326,0.667-2.02
	c0.445-2.145,0.663-4.328,0.65-6.518c0.095-2.998-0.406-5.984-1.476-8.785c-0.208-0.416-0.474-0.801-0.791-1.143
	c-0.593-0.563-1.379-0.877-2.196-0.879C168.158,384.58,166.874,385.408,166.259,386.691L166.259,386.691z"/>
<path fill="#3E441D" d="M205.772,405.367c2.017,0.09,4.038,0.02,6.044-0.211c1.194-0.162,2.222-0.924,2.723-2.02
	c0.307-0.852,0.537-1.727,0.686-2.619c0.023-0.145,0.077-0.281,0.158-0.404l0,0l0,0c0.041-0.012,0.083-0.012,0.123,0
	c0.099,0.184,0.136,0.393,0.105,0.598c0,1.758-0.123,1.547-0.123,3.25c0,0.527,0,1.072,0,1.6v0.633
	c-1.634-0.088-2.442-0.088-4.058-0.088c-2.108,0-4.217,0-6.325,0h-5.517c-0.436,0.039-0.875,0.01-1.3-0.088c0,0,0,0,0-0.158
	s0-0.264,0.439-0.264c0.699,0.016,1.391-0.135,2.02-0.439c0.193-0.158,0.281-0.404,0.281-1.512v-17.059c0-0.826,0-1.143-0.229-1.336
	c-0.167-0.193-0.397-0.324-0.65-0.369c-0.169-0.016-0.34-0.016-0.509,0h-0.756c-0.316,0-0.369-0.123-0.369-0.246
	s0.281-0.264,0.439-0.264h0.563c0.791,0,1.599,0,2.424,0c1.915,0,3.742,0,5.71,0c0.123,0,0.457,0,0.457,0.264s0,0.281-0.562,0.281
	c-0.563,0-1.318-0.105-1.634,0.316c-0.181,0.445-0.248,0.928-0.193,1.406L205.772,405.367z"/>
<path fill="#3E441D" d="M241.122,405.367c2.017,0.09,4.038,0.02,6.044-0.211c1.194-0.162,2.222-0.924,2.723-2.02
	c0.307-0.852,0.537-1.727,0.686-2.619c0.023-0.145,0.077-0.281,0.158-0.404l0,0l0,0c0,0,0.088,0,0.123,0
	c0.099,0.184,0.136,0.393,0.105,0.598c0,1.758-0.141,1.547-0.141,3.25c0,0.527,0,1.072,0,1.6v0.633
	c-1.634-0.088-2.459-0.088-4.058-0.088c-2.108,0-4.217,0-6.325,0h-5.359c-0.435,0.039-0.874,0.01-1.3-0.088c0,0-0.088,0-0.088-0.158
	s0-0.264,0.439-0.264c0.699,0.016,1.392-0.135,2.021-0.439c0.193-0.158,0.281-0.404,0.281-1.512v-17.059
	c0-0.826,0-1.143-0.229-1.336c-0.167-0.193-0.397-0.324-0.65-0.369c-0.169-0.016-0.34-0.016-0.51,0h-0.755
	c-0.316,0-0.369-0.123-0.369-0.246s0.281-0.264,0.439-0.264h0.563c0.791,0,1.599,0,2.424,0c1.915,0,3.742,0,5.692,0
	c0.141,0,0.475,0,0.475,0.264s0,0.281-0.563,0.281c-0.562,0-1.317-0.105-1.634,0.316c-0.181,0.445-0.248,0.928-0.193,1.406V405.367z
	"/>
<path fill="#3E441D" d="M276.735,394.228h1.563c1.042,0.115,2.093-0.119,2.987-0.668c0.639-0.682,1.002-1.578,1.019-2.512
	c0-0.352,0-1.107,0.369-1.178h0.193c0.123,0,0.281,0,0.281,0.668s0,0.826,0,1.23c-0.017,0.332-0.017,0.666,0,1
	c-0.087,4.076,0,5.271,0,6.203c0,0.105,0,0.352-0.246,0.352c-0.246,0-0.422-0.633-0.51-1.16c-0.024-0.996-0.316-1.967-0.843-2.811
	c-0.772-0.457-1.675-0.643-2.565-0.527h-2.126v10.541h4.217c1.333,0.133,2.675-0.162,3.83-0.844c0.414-0.328,0.76-0.734,1.019-1.193
	c0.359-0.916,0.602-1.871,0.72-2.848c0-0.088,0-0.475,0.281-0.475c0.051-0.018,0.107-0.018,0.158,0
	c0.104,0.156,0.147,0.344,0.123,0.527c0,0.58,0,1.107,0,1.652s0,1.406,0,3.971c-4.691,0-3.777-0.229-12.72-0.229
	c-1.862,0-4.199,0-4.919,0c-0.193,0-0.351,0-0.351-0.264s0.123-0.211,0.263-0.211l1.037-0.105c0.299-0.006,0.596-0.061,0.878-0.158
	c0.214-0.037,0.411-0.143,0.563-0.299c0.229-0.393,0.322-0.85,0.263-1.299v-17.57c0-0.404,0-0.914-0.298-1.16
	c-0.299-0.246-0.404-0.229-1.212-0.229h-0.667c-0.123,0-0.316,0-0.316-0.281s0.229-0.316,0.51-0.316h4.972c1.757,0,3.514,0,5.271,0
	h3.374c0.562,0,1.125,0,1.757,0c0.287,0.025,0.574,0.025,0.861,0c0.193,2.619,0.246,3.111,0.281,3.428
	c0,0.631,0.158,1.264,0.158,1.932c0,0.123,0,0.404-0.246,0.404s-0.387-0.352-0.475-0.791c-0.136-1.213-0.733-2.326-1.669-3.109
	c-1.351-0.836-2.933-1.217-4.515-1.09c-0.686,0-1.388,0-2.917,0.105L276.735,394.228z"/>
<path fill="#3E441D" d="M323.698,389.343c0,0.527,0,1.037,0,1.477s0,0.633-0.281,0.633c-0.281,0-0.386-0.51-0.421-0.703
	s-0.123-0.686-0.176-1.037c-0.234-1.295-0.804-2.506-1.651-3.514c-0.837-1.098-2.134-1.746-3.514-1.758
	c-0.925,0.008-1.826,0.295-2.583,0.826c-0.371,0.297-0.696,0.646-0.966,1.037c-1.03,1.617-1.668,3.451-1.862,5.359
	c-0.191,1.238-0.285,2.488-0.281,3.742c0,3.373,0.755,6.834,2.39,8.625c0.523,0.607,1.214,1.047,1.985,1.266
	c0.439,0.127,0.895,0.191,1.353,0.193c1.222,0.014,2.402-0.439,3.303-1.266c0.745-0.652,1.344-1.453,1.757-2.354
	c0.175-0.393,0.322-0.799,0.439-1.213c0.164-0.492,0.287-0.998,0.369-1.51c0.029-0.172,0.109-0.332,0.229-0.457
	c0.053-0.063,0.129-0.102,0.211-0.105c0,0,0.264,0,0.264,0.439s0,0.754-0.158,1.633c-0.158,1.529-0.158,2.777-0.158,3.006v0.719
	c0,0.439,0,0.914,0,1.354c0,0.105,0,0.387-0.176,0.387s-0.229-0.193-0.316-0.316c-0.299-0.658-0.822-1.188-1.476-1.494
	c-1.328,1.334-3.144,2.064-5.025,2.021c-2.746-0.066-5.364-1.172-7.327-3.092c-2.18-2.184-3.384-5.156-3.338-8.24
	c-0.014-2.752,0.916-5.426,2.635-7.572c1.958-2.412,4.923-3.781,8.029-3.707c1.237-0.023,2.456,0.307,3.514,0.947
	c0.42,0.297,0.911,0.479,1.423,0.527c0.461-0.033,0.891-0.248,1.195-0.598c0.281-0.352,0.369-0.439,0.474-0.439s0.158,0,0.158,0.193
	s0,0.281-0.141,1.072s0,1.6,0,2.32L323.698,389.343z"/>
<path fill="#3E441D" d="M354.585,402.785c0,1.211,0,1.932,0.246,2.248c0.106,0.121,0.248,0.207,0.404,0.246
	c0.282,0.068,0.571,0.111,0.861,0.123l1.16,0.123c0.075-0.018,0.153-0.018,0.229,0c0.088,0,0.123,0,0.123,0.193
	s-0.123,0.334-0.668,0.334c-0.544,0-1.476-0.141-4.691-0.141h-1.546c-1.16,0-2.302,0-3.514,0c-0.386,0-0.439-0.123-0.439-0.246
	s0.123-0.299,0.281-0.299h0.879c0.416,0.027,0.834-0.025,1.229-0.158c0.31-0.092,0.549-0.338,0.633-0.65
	c0.036-0.648,0.036-1.301,0-1.949v-17.623h-0.879c-1.498-0.229-3.014,0.291-4.058,1.389c-0.609,1.143-1.002,2.387-1.16,3.672
	c0,0.264-0.141,0.545-0.439,0.545c-0.051,0.018-0.107,0.018-0.158,0c-0.14,0-0.14-0.158-0.14-0.281
	c-0.019-0.199-0.019-0.398,0-0.598c0-0.246,0-0.51,0-0.756c0.246-3.18,0.316-3.654,0.333-4.674c8.996,0,0.949,0.105,9.136,0.105
	c1.371,0,6.307,0,7.625,0c0.352,0,0.597,0,0.914,0c0.033,1.094,0.121,2.184,0.264,3.27l0.246,2.02c0,0.633,0,0.844-0.193,0.844
	s-0.439-0.492-0.492-0.686c-0.58-2.107-0.914-3.18-1.757-3.848c-0.997-0.67-2.193-0.98-3.391-0.879c-0.598,0-0.949,0-1.318,0
	L354.585,402.785z"/>
<path fill="#3E441D" d="M381.994,387.271c0-1.494,0-1.969-0.246-2.25s-0.475-0.246-1.371-0.246h-0.369
	c-0.475,0-0.51-0.158-0.51-0.229s0-0.281,0.703-0.281c1.757,0,3.338,0,5.007,0c2.899,0,2.319-0.105,3.391-0.105
	c0.193,0,0.544,0,0.544,0.264s-0.544,0.281-1.107,0.316c-0.312-0.014-0.624,0.041-0.914,0.158c-0.21,0.088-0.369,0.246-0.369,0.844
	v17.799c-0.062,0.512,0.011,1.033,0.211,1.51c0.281,0.352,0.878,0.352,2.108,0.439c0.158,0,0.281,0,0.281,0.229s0,0.211-0.158,0.246
	c-0.093,0.018-0.188,0.018-0.281,0c-0.598,0-1.757-0.123-3.672-0.123h-2.969c-0.826,0-1.634,0-2.495,0
	c-0.157,0.025-0.318-0.02-0.439-0.123c-0.019-0.051-0.019-0.107,0-0.158c0-0.123,0-0.158,0.105-0.193s0.51,0,1.16,0
	c0.465,0.045,0.924-0.139,1.23-0.492c0.173-0.385,0.24-0.811,0.193-1.23L381.994,387.271z"/>
<path fill="#3E441D" d="M425.179,386.568c1.078,1.029,1.928,2.275,2.494,3.654c0.643,1.572,0.965,3.256,0.949,4.955
	c0.035,2.924-1.01,5.758-2.934,7.959c-0.723,0.82-1.578,1.516-2.531,2.055c-3.932,2.219-8.882,1.375-11.858-2.02
	c-1.972-2.209-3.055-5.07-3.04-8.029c-0.005-1.912,0.427-3.799,1.265-5.518c0.47-0.912,1.061-1.758,1.757-2.512
	c1.885-2.045,4.545-3.199,7.326-3.18C421.058,383.925,423.414,384.869,425.179,386.568z M415.288,386.691
	c-1.111,2.438-1.617,5.107-1.476,7.783c0,1.984,0.158,7.027,2.267,9.979c0.221,0.324,0.487,0.613,0.791,0.861
	c0.568,0.434,1.273,0.645,1.985,0.598c1.316,0.074,2.513-0.76,2.899-2.021c0.287-0.648,0.504-1.324,0.65-2.02
	c0.459-2.143,0.684-4.328,0.666-6.518c0.096-2.998-0.406-5.984-1.475-8.785c-0.208-0.416-0.474-0.801-0.791-1.143
	c-0.593-0.563-1.379-0.877-2.196-0.879C417.186,384.58,415.902,385.408,415.288,386.691z"/>
<path fill="#3E441D" d="M450.322,389.783c0.098-1.15-0.002-2.311-0.299-3.426c-0.188-0.414-0.484-0.768-0.861-1.02
	c-0.215-0.133-0.445-0.24-0.686-0.316c-0.354-0.076-0.711-0.129-1.072-0.158c-0.984,0-1.334,0-1.334-0.316s0.105-0.281,0.455-0.281
	c1.125,0,0.65,0.105,3.516,0.105c1.563,0,2.16,0,3.338,0l11.051,14.215v-12.475c0-0.984-0.281-1.143-0.879-1.213h-0.914
	c-0.297,0.018-0.598,0.018-0.895,0c-0.123,0-0.369,0-0.369-0.229s1.598-0.281,2.617-0.281h2.072c0.475,0,1.037,0,1.6,0
	s0.475,0,0.545,0.123s0,0.158,0,0.264s-0.123,0.088-0.229,0.088c-0.65,0-0.791,0-1.758,0c-0.299,0-0.754,0-0.912,0.264
	s-0.123,0.404-0.123,1.318v19.326c0,0.176,0,0.492-0.176,0.492s-0.51-0.404-0.615-0.527l-13.283-16.604c0,4.252,0,0,0,5.482v9.785
	c0,0.352,0,0.633,0.404,0.826c0.672,0.199,1.373,0.281,2.074,0.246c0.229,0,0.51,0,0.631,0.158c0.018,0.045,0.018,0.096,0,0.141
	c0,0.088-0.123,0.246-0.473,0.246h-0.369c-0.352,0-0.738,0-1.072,0h-1.494c-0.439,0-2.107,0-2.793,0h-0.633
	c-0.51,0-0.598-0.158-0.598-0.246s0.475-0.264,0.756-0.264s0.527,0,1.283-0.123c0.447,0.023,0.885-0.135,1.213-0.439
	c0.209-0.281,0.141-0.914,0.141-1.266L450.322,389.783z"/>
<path fill="#3E441D" d="M518.156,394.791v8.029c-0.096,0.744-0.016,1.502,0.229,2.213c0.252,0.275,0.596,0.443,0.967,0.475
	c0.264,0,0.545,0,0.826,0s0.598,0,0.598,0.316s-0.229,0.193-0.281,0.193h-0.914h-0.158l-2.617-0.088c-0.246,0-0.756,0-2.109,0
	s-2.336,0.105-3.514,0.105c-0.123,0-0.457,0-0.457-0.281s0.281-0.264,0.439-0.264s0.475,0,0.721,0s1.266-0.193,1.439-0.422
	c0.176-0.229,0.141-0.598,0.141-1.563V385.83c0.035-0.311-0.082-0.617-0.314-0.826c-0.627-0.246-1.297-0.354-1.969-0.316
	c-0.141,0-0.404,0-0.404-0.281s0.404-0.281,0.598-0.281c0.279,0.016,0.555,0.057,0.826,0.123c0.146,0.016,0.293,0.016,0.439,0h4.461
	c0.826,0,2.443-0.105,3.129-0.105c0.246,0,0.633,0,0.633,0.316c0.02,0.076,0.02,0.154,0,0.229c-0.08,0.033-0.168,0.033-0.246,0
	h-1.143c-0.318-0.018-0.631,0.082-0.879,0.281c-0.266,0.424-0.377,0.928-0.316,1.424v7.432h7.59v-7.027
	c0.049-0.617-0.105-1.234-0.439-1.758c-0.307-0.299-0.734-0.441-1.158-0.387h-0.703c-0.158,0-0.475,0-0.475-0.299
	c-0.016-0.051-0.016-0.105,0-0.158c0.088-0.141,0.141-0.141,0.299-0.141c0.357-0.018,0.715-0.018,1.072,0
	c0.35,0.025,0.703,0.025,1.053,0h5.078c0.861,0,1.652-0.104,2.529-0.104c0,0,0.281,0,0.281,0.191c0.002,0.127-0.102,0.23-0.227,0.23
	c-0.006,0-0.014,0-0.02-0.002c-0.387,0-0.736,0-1.07,0c-0.434-0.021-0.857,0.115-1.195,0.387c-0.422,0.404-0.387,1.354-0.387,2.074
	v15.496c0,0.949-0.088,1.984,0.51,2.459c0.322,0.215,0.689,0.352,1.072,0.404l0.719,0.105c0.199-0.012,0.393,0.066,0.527,0.211
	c0.018,0.051,0.018,0.107,0,0.158c0,0.193-0.229,0.193-0.281,0.193c-0.289-0.016-0.576-0.051-0.859-0.105h-0.914
	c-1.248,0-2.512-0.105-3.777-0.105h-3.936c-0.193,0-0.492,0-0.492-0.246s0.281-0.264,0.439-0.264
	c0.598,0.117,1.211,0.123,1.809,0.018c0.492-0.264,0.492-0.703,0.492-1.213v-9.152H518.156z"/>
<path fill="#3E441D" d="M568.914,386.568c1.072,1.035,1.922,2.279,2.496,3.654c0.641,1.572,0.963,3.256,0.947,4.955
	c0.035,2.924-1.01,5.758-2.934,7.959c-0.723,0.82-1.578,1.516-2.529,2.055c-3.939,2.221-8.895,1.377-11.877-2.02
	c-1.959-2.215-3.035-5.072-3.021-8.029c-0.006-1.912,0.426-3.799,1.264-5.518c0.477-0.91,1.066-1.754,1.758-2.512
	c1.893-2.045,4.559-3.197,7.344-3.18C564.804,383.929,567.154,384.875,568.914,386.568z M559.023,386.691
	c-1.111,2.438-1.617,5.107-1.477,7.783c0,1.984,0.158,7.027,2.268,9.979c0.215,0.328,0.482,0.619,0.789,0.861
	c0.568,0.434,1.273,0.645,1.986,0.598c1.316,0.074,2.512-0.76,2.898-2.021c0.279-0.65,0.498-1.328,0.65-2.02
	c0.451-2.143,0.674-4.328,0.668-6.518c0.096-2.998-0.406-5.984-1.477-8.785c-0.207-0.416-0.473-0.801-0.791-1.143
	c-0.6-0.563-1.391-0.877-2.213-0.879C560.91,384.585,559.634,385.414,559.023,386.691z"/>
<path fill="#3E441D" d="M602.63,402.785c0,1.211,0,1.932,0.246,2.248c0.115,0.119,0.262,0.203,0.422,0.246
	c0.275,0.07,0.559,0.111,0.842,0.123l1.16,0.123c0.074-0.02,0.154-0.02,0.229,0c0.088,0,0.123,0,0.123,0.193
	s-0.123,0.334-0.65,0.334s-1.492-0.141-4.709-0.141h-1.527c-1.178,0-2.303,0-3.514,0c-0.369,0-0.439-0.123-0.439-0.246
	s0.123-0.299,0.281-0.299h0.895c0.418,0.027,0.834-0.027,1.23-0.158c0.305-0.094,0.537-0.34,0.615-0.65
	c0.049-0.648,0.049-1.301,0-1.949v-17.623h-0.879c-1.502-0.225-3.021,0.293-4.076,1.389c-0.607,1.143-1.002,2.387-1.158,3.672
	c0,0.264-0.123,0.545-0.439,0.545c-0.053,0.016-0.107,0.016-0.158,0c-0.123,0-0.123-0.158-0.123-0.281
	c-0.02-0.199-0.02-0.398,0-0.598c0-0.246,0-0.51,0-0.756c0.264-3.18,0.316-3.654,0.352-4.674c8.977,0,0.947,0.105,9.135,0.105
	c1.354,0,6.291,0,7.625,0c0.352,0,0.598,0,0.914,0c0.027,1.094,0.109,2.184,0.246,3.27l0.246,2.02c0,0.633,0,0.844-0.176,0.844
	s-0.439-0.492-0.51-0.686c-0.182-1.414-0.762-2.748-1.668-3.848c-1.002-0.676-2.205-0.984-3.41-0.879c-0.596,0-0.93,0-1.316,0
	L602.63,402.785z"/>
<path fill="#3E441D" d="M634.957,394.228h1.582c1.043,0.113,2.092-0.121,2.986-0.668c0.627-0.689,0.982-1.582,1.002-2.512
	c0-0.352,0-1.107,0.387-1.178l0,0c0.123,0,0.281,0,0.281,0.668s0,0.826,0,1.23c-0.018,0.332-0.018,0.666,0,1
	c-0.105,4.076,0,5.271,0,6.203c0,0.105,0,0.352-0.246,0.352s-0.404-0.633-0.51-1.16c-0.025-0.996-0.316-1.967-0.844-2.811
	c-0.766-0.455-1.662-0.641-2.547-0.527h-2.092v10.541h4.217c1.34,0.133,2.688-0.164,3.848-0.844
	c0.412-0.326,0.752-0.732,1.002-1.193c0.359-0.916,0.602-1.871,0.721-2.848c0-0.088,0-0.475,0.299-0.475
	c0.051-0.016,0.107-0.016,0.158,0c0.104,0.156,0.146,0.344,0.123,0.527c0,0.58,0,1.107,0,1.652s0,1.406,0,3.971
	c-4.691,0-3.777-0.229-12.721-0.229c-1.861,0-4.182,0-4.92,0c-0.176,0-0.334,0-0.334-0.264s0.123-0.211,0.246-0.211l1.037-0.105
	c0.299-0.006,0.596-0.061,0.879-0.158c0.219-0.037,0.422-0.143,0.58-0.299c0.223-0.395,0.309-0.852,0.246-1.299v-17.57
	c0-0.404,0-0.914-0.281-1.16s-0.404-0.229-1.23-0.229h-0.668c-0.123,0-0.316,0-0.316-0.281s0.229-0.316,0.51-0.316h4.973
	c1.756,0,3.514,0,5.271,0h3.373c0.563,0,1.123,0,1.756,0c0.281,0.023,0.563,0.023,0.844,0c0.193,2.619,0.246,3.111,0.281,3.428
	c0.018,0.627-0.002,1.254-0.053,1.879c0,0.123,0,0.404-0.246,0.404s-0.387-0.352-0.475-0.791c-0.135-1.213-0.732-2.326-1.668-3.109
	c-1.346-0.834-2.922-1.217-4.498-1.09c-0.703,0-1.389,0-2.936,0.105L634.957,394.228z"/>
<path fill="#3E441D" d="M671.255,405.367c2.018,0.09,4.039,0.02,6.045-0.211c1.195-0.148,2.223-0.916,2.705-2.02
	c0.32-0.848,0.555-1.725,0.703-2.619c0.008-0.145,0.057-0.285,0.141-0.404l0,0l0,0h0.123c0.092,0.186,0.123,0.395,0.088,0.598
	c0,1.758-0.123,1.547-0.123,3.25c0,0.527,0,1.072,0,1.6v0.633c-1.635-0.088-2.461-0.088-4.059-0.088c-2.127,0-4.234,0-6.344,0
	h-5.516c-0.43,0.039-0.863,0.01-1.283-0.088c0,0-0.088,0-0.088-0.158s0-0.264,0.439-0.264c0.693,0.018,1.381-0.133,2.004-0.439
	c0.191-0.158,0.297-0.404,0.297-1.512v-17.059c0-0.826,0-1.143-0.227-1.336c-0.176-0.195-0.41-0.324-0.668-0.369
	c-0.164-0.016-0.328-0.016-0.492,0h-0.756c-0.316,0-0.387-0.123-0.387-0.246s0.281-0.264,0.439-0.264h0.563c0.791,0,1.615,0,2.441,0
	c1.916,0,3.742,0,5.693,0c0.123,0,0.475,0,0.475,0.264s0,0.281-0.563,0.281s-1.336-0.105-1.652,0.316
	c-0.17,0.447-0.23,0.93-0.176,1.406L671.255,405.367z"/>
<path fill="#3E441D" d="M712.808,384.212c0,0.176,0,0.316,0,0.65s0,1.23,0,2.021c0,1.756,0.158,1.475,0.158,2.424
	c0,0.246-0.158,0.281-0.264,0.281s-0.475-0.633-0.527-0.949c-0.119-0.451-0.303-0.883-0.545-1.281
	c-0.451-0.883-1.107-1.643-1.916-2.215c-0.664-0.389-1.426-0.584-2.195-0.563c-1.969,0-3.848,0.879-3.848,3.182
	c-0.01,0.637,0.201,1.258,0.598,1.756c1.154,1.275,2.561,2.297,4.129,3.004c1.625,0.805,3.139,1.822,4.498,3.023
	c1.059,1.16,1.637,2.68,1.615,4.25c0,3.182-2.371,6.572-7.344,6.572c-1.268,0.023-2.525-0.221-3.689-0.721
	c-0.611-0.289-1.254-0.508-1.914-0.65c-0.113-0.01-0.227,0.021-0.316,0.088c-0.115,0.08-0.207,0.189-0.264,0.316
	c-0.281,0.598-0.246,0.914-0.404,1.037c-0.029,0.012-0.061,0.012-0.088,0c-0.105,0-0.264-0.123-0.264-0.439
	c0.17-1.223,0.27-2.455,0.299-3.689c0-0.949-0.105-1.107-0.105-2.426c0-0.123,0-0.543,0.316-0.543s0.404,0.631,0.563,1.352
	c0.254,1.395,0.949,2.67,1.984,3.637c0.982,0.844,2.221,1.332,3.514,1.389c2.113,0.107,3.912-1.52,4.02-3.633
	c0.002-0.059,0.004-0.119,0.004-0.18c0.014-0.734-0.256-1.445-0.756-1.986c-1.113-0.906-2.342-1.664-3.654-2.248
	c-1.842-0.793-3.447-2.053-4.654-3.654c-0.752-1.182-1.148-2.553-1.143-3.953c0-3.795,3.021-6.271,7.027-6.271
	c1.105-0.002,2.193,0.256,3.18,0.754c0.26,0.146,0.547,0.23,0.844,0.246c0,0,0.158,0,0.229,0s0.299-0.527,0.404-0.826
	c0.105-0.297,0.123-0.279,0.281-0.279S712.808,383.828,712.808,384.212z"/>
</svg>
